<svg id="bass-clef" viewBox="0 0 192 192" xmlns="http://www.w3.org/2000/svg">
	<line y1="48" x2="192" y2="48" style="stroke:#000;stroke-miterlimit:10;stroke-width:2px;"/>
	<line y1="72" x2="192" y2="72" style="stroke:#000;stroke-miterlimit:10;stroke-width:2px;"/>
	<line y1="96" x2="192" y2="96" style="stroke:#000;stroke-miterlimit:10;stroke-width:2px;"/>
	<line y1="120" x2="192" y2="120" style="stroke:#000;stroke-miterlimit:10;stroke-width:2px;"/>
	<line y1="144" x2="192" y2="144" style="stroke:#000;stroke-miterlimit:10;stroke-width:2px;"/>
  <path fill="black" stroke="#131516" stroke-width="0.621063" d="m35.5364,739.914978c32.757301,-22.117981 57.221603,-38.862976 72.9786,-50.438965c15.756004,-11.369019 32.341995,-25.632996 49.343002,-42.583984c17.000992,-16.950012 31.306,-36.175049 42.916,-57.467041c9.123001,-15.710999 17.000992,-33.901978 23.427994,-54.572998c6.427002,-20.466003 9.744003,-40.309998 10.365997,-59.121979c0,-17.571014 -2.279999,-34.315002 -7.048996,-50.025024c-4.561005,-15.917999 -12.438995,-28.940979 -23.634995,-39.483002c-11.195007,-10.335999 -25.708008,-15.503998 -43.744995,-15.503998c-17.416,0 -33.794006,3.514008 -49.136009,10.335999c-15.135101,7.028015 -25.916,18.19101 -31.928398,33.901001c0,1.447021 -0.8293,3.308014 -2.073196,5.995026c0.414597,3.307983 2.073196,5.787994 5.183098,7.648987c3.109901,1.860016 5.805099,2.687012 8.292999,2.687012c1.243896,0 4.768402,-0.620026 10.158501,-1.860016c5.598,-1.240997 10.158997,-2.067993 13.890999,-2.067993c10.987999,0 20.732994,3.928009 29.648003,11.576996c8.707001,7.64801 13.060989,16.950012 13.060989,27.906006c0,7.855988 -2.280991,15.298004 -6.633987,22.118988c-4.354004,6.822021 -10.367004,12.403015 -18.03801,16.330994c-7.670998,4.134003 -16.170998,5.995026 -25.292992,5.995026c-16.586205,0 -30.684303,-4.962006 -42.294502,-15.091003c-11.402901,-10.335999 -17.208,-23.359009 -17.208,-39.688995c0,-20.878998 6.427097,-38.863007 19.073898,-54.160004c12.854202,-15.298004 29.025497,-26.667023 48.928604,-34.31601c19.695992,-7.855011 39.598991,-11.575989 59.917,-11.575989c22.18399,0 43.330994,5.582001 63.026993,16.950989c19.903015,11.162994 35.451996,26.666992 47.062012,45.890991c11.610992,19.432007 17.622986,40.104004 17.622986,62.429016c0,39.689972 -13.268982,76.485992 -39.806,110.593964c-26.537994,34.108032 -59.294998,63.669006 -98.479996,88.889038c-26.123001,17.156982 -68.416801,40.309021 -126.675098,69.45697l-2.9025,-10.75l0,0l0,0l0,0l0,0l0,0zm287.974586,-319.791992c0,-7.441986 2.695007,-13.642975 8.085022,-18.603973c5.182983,-5.167999 11.609985,-7.649017 19.281006,-7.649017c6.634979,0 12.85498,2.894012 18.451996,8.476013c5.597992,5.373993 8.292999,11.781982 8.292999,18.811005c0,7.441986 -2.902008,13.849976 -8.292999,19.017975c-5.805023,4.960999 -12.232025,7.442017 -19.488007,7.442017c-7.67099,0 -13.890991,-2.481018 -18.867004,-8.062012c-4.976013,-5.375 -7.463013,-11.78299 -7.463013,-19.432007zm0,108.320007c0,-7.442017 2.695007,-13.849976 7.671021,-18.811005c5.182983,-5.167999 11.609985,-7.648987 19.695007,-7.648987c6.634979,0 12.646973,2.687988 18.451996,8.269012c5.390991,5.580994 8.292999,11.575989 8.292999,18.190979c0,8.062012 -2.695007,14.471008 -7.878021,19.638c-5.389984,5.16803 -11.609985,7.856018 -18.866974,7.856018c-8.085022,0 -14.512024,-2.687988 -19.695007,-7.648987c-4.976013,-4.960999 -7.671021,-11.57605 -7.671021,-19.845032z"
  transform="translate(0 -23) scale(0.2)"/>
</svg>