

<svg style="display: none;" xmlns="http://www.w3.org/2000/svg" xmlns:xlink="http://www.w3.org/1999/xlink" version="1.1" class="svg-ref">
	<symbol id="stave-header" viewBox="0 0 192 192">
		<defs>
			<style>.cls-1{fill:none;stroke:#000;stroke-miterlimit:10;stroke-width:2px;}</style>
		</defs>
		<line y1="48" x2="192" y2="48" style="stroke:#000;stroke-width:2"/>
		<line y1="72" x2="192" y2="72" style="stroke:#000;stroke-width:2"/>
		<line y1="96" x2="192" y2="96" style="stroke:#000;stroke-width:2"/>
		<line y1="120" x2="192" y2="120" style="stroke:#000;stroke-width:2"/>
		<line y1="144" x2="192" y2="144" style="stroke:#000;stroke-width:2"/>
		<path d="M71.9,117.49c0-12.67-12.67-20.76-21-20.76a13.63,13.63,0,0,0-2.47.23L45.25,81.43C61,67.2,59.55,48.56,59.55,43.82c0-4.9-.64-18.63-9.58-23.32-12.14,4.9-13.1,23.74-13.1,27.15s.21,2.77,2.34,18c.16,1.14.4,2.59.71,4.29C26.77,83.09,16,93.79,16,110.25s12.78,32.58,30.24,32.58a30.19,30.19,0,0,0,8.41-1.12c1.85,9.54,3.09,17,3.09,19.86,0,10.54-7.67,15-13.42,15s-6.81-4-6.81-4c9.26,0,8.2-9.61,8.2-9.61h0a8.53,8.53,0,0,0-17.05,0h0c0,.06,0,.12,0,.19s0,0,0,0,0,.05,0,.08c.08,8,3.39,15.79,16,15.79,12.78,0,16.08-12.25,16.08-17a61.26,61.26,0,0,0-.75-9.15l-2.5-12.13C67.24,136.59,71.9,127,71.9,117.49ZM52,34.23c3.94,0,4.79,2.77,4.79,7.56,0,4.54-2.86,13.45-14.44,25.67-.16-.79-.32-1.54-.47-2.24C37.29,43.39,48,34.23,52,34.23ZM46.13,140.17c-20.44,0-24.06-19.59-24.06-25.34s4-17.18,20.54-31.16c.89,4.33,1.89,9.11,2.94,14.11a20.73,20.73,0,0,0-13.06,19.5c0,12.46,13.1,14.37,13.1,14.37-6.71-5.32-7-8.94-7-11.39,0-2.17,1.09-10.34,9.16-12.19,2.28,10.76,4.61,21.83,6.44,31.17A31.16,31.16,0,0,1,46.13,140.17ZM57,138.28c-1.72-8.36-4-19.38-6.3-30.57h.57c11.28,0,13.52,13.84,13.52,16.18C64.76,125.69,65.84,134.38,57,138.28Z"/>
	</symbol>
	<symbol id="bass-clef" viewBox="0 0 192 192" xmlns="http://www.w3.org/2000/svg">
		<line y1="48" x2="192" y2="48" style="stroke:#000;stroke-miterlimit:10;stroke-width:2px;"/>
		<line y1="72" x2="192" y2="72" style="stroke:#000;stroke-miterlimit:10;stroke-width:2px;"/>
		<line y1="96" x2="192" y2="96" style="stroke:#000;stroke-miterlimit:10;stroke-width:2px;"/>
		<line y1="120" x2="192" y2="120" style="stroke:#000;stroke-miterlimit:10;stroke-width:2px;"/>
		<line y1="144" x2="192" y2="144" style="stroke:#000;stroke-miterlimit:10;stroke-width:2px;"/>
	  <path fill="black" stroke="#131516" stroke-width="0.621063" d="m35.5364,739.914978c32.757301,-22.117981 57.221603,-38.862976 72.9786,-50.438965c15.756004,-11.369019 32.341995,-25.632996 49.343002,-42.583984c17.000992,-16.950012 31.306,-36.175049 42.916,-57.467041c9.123001,-15.710999 17.000992,-33.901978 23.427994,-54.572998c6.427002,-20.466003 9.744003,-40.309998 10.365997,-59.121979c0,-17.571014 -2.279999,-34.315002 -7.048996,-50.025024c-4.561005,-15.917999 -12.438995,-28.940979 -23.634995,-39.483002c-11.195007,-10.335999 -25.708008,-15.503998 -43.744995,-15.503998c-17.416,0 -33.794006,3.514008 -49.136009,10.335999c-15.135101,7.028015 -25.916,18.19101 -31.928398,33.901001c0,1.447021 -0.8293,3.308014 -2.073196,5.995026c0.414597,3.307983 2.073196,5.787994 5.183098,7.648987c3.109901,1.860016 5.805099,2.687012 8.292999,2.687012c1.243896,0 4.768402,-0.620026 10.158501,-1.860016c5.598,-1.240997 10.158997,-2.067993 13.890999,-2.067993c10.987999,0 20.732994,3.928009 29.648003,11.576996c8.707001,7.64801 13.060989,16.950012 13.060989,27.906006c0,7.855988 -2.280991,15.298004 -6.633987,22.118988c-4.354004,6.822021 -10.367004,12.403015 -18.03801,16.330994c-7.670998,4.134003 -16.170998,5.995026 -25.292992,5.995026c-16.586205,0 -30.684303,-4.962006 -42.294502,-15.091003c-11.402901,-10.335999 -17.208,-23.359009 -17.208,-39.688995c0,-20.878998 6.427097,-38.863007 19.073898,-54.160004c12.854202,-15.298004 29.025497,-26.667023 48.928604,-34.31601c19.695992,-7.855011 39.598991,-11.575989 59.917,-11.575989c22.18399,0 43.330994,5.582001 63.026993,16.950989c19.903015,11.162994 35.451996,26.666992 47.062012,45.890991c11.610992,19.432007 17.622986,40.104004 17.622986,62.429016c0,39.689972 -13.268982,76.485992 -39.806,110.593964c-26.537994,34.108032 -59.294998,63.669006 -98.479996,88.889038c-26.123001,17.156982 -68.416801,40.309021 -126.675098,69.45697l-2.9025,-10.75l0,0l0,0l0,0l0,0l0,0zm287.974586,-319.791992c0,-7.441986 2.695007,-13.642975 8.085022,-18.603973c5.182983,-5.167999 11.609985,-7.649017 19.281006,-7.649017c6.634979,0 12.85498,2.894012 18.451996,8.476013c5.597992,5.373993 8.292999,11.781982 8.292999,18.811005c0,7.441986 -2.902008,13.849976 -8.292999,19.017975c-5.805023,4.960999 -12.232025,7.442017 -19.488007,7.442017c-7.67099,0 -13.890991,-2.481018 -18.867004,-8.062012c-4.976013,-5.375 -7.463013,-11.78299 -7.463013,-19.432007zm0,108.320007c0,-7.442017 2.695007,-13.849976 7.671021,-18.811005c5.182983,-5.167999 11.609985,-7.648987 19.695007,-7.648987c6.634979,0 12.646973,2.687988 18.451996,8.269012c5.390991,5.580994 8.292999,11.575989 8.292999,18.190979c0,8.062012 -2.695007,14.471008 -7.878021,19.638c-5.389984,5.16803 -11.609985,7.856018 -18.866974,7.856018c-8.085022,0 -14.512024,-2.687988 -19.695007,-7.648987c-4.976013,-4.960999 -7.671021,-11.57605 -7.671021,-19.845032z"
	  transform="translate(0 -23) scale(0.2)"/>
	</symbol>
	<symbol id="quarter-note-down" viewBox="0 0 34 192">
		filled oval
		stick down
	</symbol>
	<symbol id="quarter-note-down-line" viewBox="0 0 34 192">
		filled oval
		stick down
		<line x1="-6" y1="96" x2="40" y2="96" style="fill:none;stroke-miterlimit:10;stroke-width:2px;" />
	</symbol>
	<symbol id="quarter-note-down-line-under" viewBox="0 0 34 192">
		filled oval
		stick down
		<line x1="-6" y1="108" x2="40" y2="108" style="fill:none;stroke-miterlimit:10;stroke-width:2px;" />
	</symbol>
	<symbol id="quarter-note-up" viewBox="0 0 34 192">
		filled oval
		stick up
	</symbol>
	<symbol id="quarter-note-up-line" viewBox="0 0 34 192">
		filled oval
		stick up
		<line x1="-6" y1="96" x2="40" y2="96" style="fill:none;stroke-miterlimit:10;stroke-width:2px;" />
	</symbol>
	<symbol id="half-note-up" viewBox="0 0 34 192">
		empty oval
		stick up
	</symbol>
	<symbol id="half-note-up-line" viewBox="0 0 34 192">
		empty oval
		stick up
		<line x1="-6" y1="96" x2="40" y2="96" style="fill:none;stroke-miterlimit:10;stroke-width:2px;" />
	</symbol>
	<symbol id="half-note-down" viewBox="0 0 34 192">
		empty oval
		stick down
	</symbol>
	<symbol id="half-note-down-line" viewBox="0 0 34 192">
		empty oval
		stick down
		<line x1="-6" y1="96" x2="40" y2="96" style="fill:none;stroke-miterlimit:10;stroke-width:2px;" />
	</symbol>
	<symbol id="half-note-down-line-under" viewBox="0 0 34 192">
		empty oval
		stick down
		<line x1="-6" y1="108" x2="40" y2="108" style="fill:none;stroke-miterlimit:10;stroke-width:2px;" />
	</symbol>
	<symbol id="eighth-note-up" viewBox="0 0 82 192">
		<path d="m26.845001,105.279993c-2.73,-4.8 1.39,-12.39 9.21,-17s16.37,-4.4 19.1,0.4s-1.39,12.39 -9.21,17s-16.36,4.4 -19.1,-0.4z"/>
		  <rect height="67" width="2" y="25" x="53"/>
		  <path d="m55.666669,24.666662s3.92,9.26 8.52,14.05s16.11,16.37 15.48,27.45s-3.32,13.39 -8.41,20.5c0,0 5.43,-14.05 5.43,-20.34s-2.57,-16.53 -21,-20l-0.02,-21.66z"/>
	</symbol>
	<symbol id="eighth-note-up-line" viewBox="0 0 82 192">
		<path d="m26.845001,105.279993c-2.73,-4.8 1.39,-12.39 9.21,-17s16.37,-4.4 19.1,0.4s-1.39,12.39 -9.21,17s-16.36,4.4 -19.1,-0.4z"/>
		  <rect height="67" width="2" y="25" x="53"/>
		  <path d="m55.666669,24.666662s3.92,9.26 8.52,14.05s16.11,16.37 15.48,27.45s-3.32,13.39 -8.41,20.5c0,0 5.43,-14.05 5.43,-20.34s-2.57,-16.53 -21,-20l-0.02,-21.66z"/>
		<line x1="18" y1="96" x2="65" y2="96" style="fill:none;stroke-miterlimit:10;stroke-width:2px;" />
	</symbol>
	<symbol id="eighth-note-down" viewBox="0 0 34 192">
		filled oval
		stick down
		<path d="M4,168s3.92-8.66,8.52-13.15S28.63,139.54,28,129.18,24.68,116.65,19.59,110c0,0,5.43,13.15,5.43,19s-2.57,15.47-21,18.71Z"/>
	</symbol>
	<symbol id="eighth-note-down-line" viewBox="0 0 34 192">
		filled oval
		stick down
		<path d="M4,168s3.92-8.66,8.52-13.15S28.63,139.54,28,129.18,24.68,116.65,19.59,110c0,0,5.43,13.15,5.43,19s-2.57,15.47-21,18.71Z"/>
		<line x1="-6" y1="96" x2="40" y2="96" style="fill:none;stroke-miterlimit:10;stroke-width:2px;" />
	</symbol>
	<symbol id="eighth-note-down-line-under" viewBox="0 0 34 192">
		filled oval
		stick down
		<path d="M4,168s3.92-8.66,8.52-13.15S28.63,139.54,28,129.18,24.68,116.65,19.59,110c0,0,5.43,13.15,5.43,19s-2.57,15.47-21,18.71Z"/>
		<line x1="-6" y1="108" x2="40" y2="108" style="fill:none;stroke-miterlimit:10;stroke-width:2px;" />
	</symbol>
	<symbol id="eighth-note-up-bar-1" viewBox="0 0 34 192">
		filled oval
		stick up
		<rect x="31" y="24" width="61" height="6" />
	</symbol>
	<symbol id="eighth-note-up-bar-2" viewBox="0 0 34 192">
		filled oval
		stick up
		<rect x="-18" y="24" width="49" height="6" />
	</symbol>
	<symbol id="eighth-note-up-bar-3" viewBox="0 0 34 192">
		filled oval
		stick up
		<rect x="-18" y="24" width="89" height="6" />
	</symbol>
	<symbol id="eighth-note-down-bar-1" viewBox="0 0 34 192">
		filled oval
		stick down
		<rect x="2" y="162" width="61" height="6" />
	</symbol>
	<symbol id="eighth-note-down-bar-skewup-1" viewBox="0 0 34 192">
		filled oval
		stick down
		<rect x="2" y="162" width="61" height="6" transform="rotate(-15) skewX(-15)"/>
	</symbol>
	<symbol id="eighth-note-down-bar-skewdown-1" viewBox="0 0 34 192">
		filled oval
		stick down
		<rect transform="rotate(15) skewX(15)" height="6" width="61" y="159" x="2"/>
	</symbol>
	<symbol id="eighth-note-down-bar-2" viewBox="0 0 34 192">
		filled oval
		stick down
		<rect x="-31" y="162" width="34" height="6" />
	</symbol>
	<symbol id="eighth-note-down-bar-skewup-2" viewBox="0 0 34 192">
		filled oval
		stick down
		<rect x="-31" y="158" width="35" height="6" transform="rotate(-15) skewX(-15)"/>
	</symbol>
	<symbol id="eighth-note-down-bar-skewdown-2" viewBox="0 0 34 192">
		filled oval
		stick down
		<rect x="-31" y="158" width="35" height="6" transform="rotate(15) skewX(15)"/>
	</symbol>
	<symbol id="eighth-note-down-bar-3" viewBox="0 0 34 192">
		filled oval
		stick down
		<rect x="-22" y="162" width="81" height="6" />
	</symbol>
	<symbol id="whole-note" viewBox="0 0 26 10">
		<path stroke-width="0.2" d="m12.438118,0.003c-5.09072,0.1822 -9.125,2.5826 -9.125,5.5c0,3.036 4.368,5.5 9.75,5.5c5.382,0 9.75,-2.464 9.75,-5.5c0,-3.036 -4.368,-5.5 -9.75,-5.5c-0.21023,0 -0.41806,-0.0074 -0.625,0zm-1.625,1.0625c1.3579,-0.139 3.06798,0.4906 4.5,1.7812c2.14502,1.9332 2.87122,4.6439 1.625,6.0625l-0.03125,0.0313c-1.27086,1.4101 -4.0623,0.9748 -6.21875,-0.9688c-2.15645,-1.9435 -2.86461,-4.6836 -1.59375,-6.0937c0.42693,-0.4737 1.03181,-0.7422 1.71875,-0.8125z"/>
	</symbol>
	<symbol id="whole-note-line" viewBox="0 0 26 10">
		<path stroke-width="0.2" d="m12.438118,0.003c-5.09072,0.1822 -9.125,2.5826 -9.125,5.5c0,3.036 4.368,5.5 9.75,5.5c5.382,0 9.75,-2.464 9.75,-5.5c0,-3.036 -4.368,-5.5 -9.75,-5.5c-0.21023,0 -0.41806,-0.0074 -0.625,0zm-1.625,1.0625c1.3579,-0.139 3.06798,0.4906 4.5,1.7812c2.14502,1.9332 2.87122,4.6439 1.625,6.0625l-0.03125,0.0313c-1.27086,1.4101 -4.0623,0.9748 -6.21875,-0.9688c-2.15645,-1.9435 -2.86461,-4.6836 -1.59375,-6.0937c0.42693,-0.4737 1.03181,-0.7422 1.71875,-0.8125z"/>
		<line stroke-miterlimit="10" stroke-width="1px" y2="6" x2="26" y1="6" x1="0"/>
	</symbol>
	<symbol id="whole-note-line-under" viewBox="0 0 26 10">
		<path stroke-width="0.2" d="m12.438118,0.003c-5.09072,0.1822 -9.125,2.5826 -9.125,5.5c0,3.036 4.368,5.5 9.75,5.5c5.382,0 9.75,-2.464 9.75,-5.5c0,-3.036 -4.368,-5.5 -9.75,-5.5c-0.21023,0 -0.41806,-0.0074 -0.625,0zm-1.625,1.0625c1.3579,-0.139 3.06798,0.4906 4.5,1.7812c2.14502,1.9332 2.87122,4.6439 1.625,6.0625l-0.03125,0.0313c-1.27086,1.4101 -4.0623,0.9748 -6.21875,-0.9688c-2.15645,-1.9435 -2.86461,-4.6836 -1.59375,-6.0937c0.42693,-0.4737 1.03181,-0.7422 1.71875,-0.8125z"/>
		<line stroke-miterlimit="10" stroke-width="1px" y2="11" x2="26" y1="11" x1="0"/>
	</symbol>
	<symbol id="three-eighth-note-down" viewBox="0 0 34 192">
		filled oval
		stick down
		<circle cx="40" cy="96" r="3"/>
	</symbol>
	<symbol id="three-eighth-note-up" viewBox="0 0 34 192">
		filled oval
		stick up
		<circle cx="40" cy="96" r="3"/>
	</symbol>
	<symbol id="three-eighth-note-offset-up" viewBox="0 0 34 192">
		filled oval
		stick up
		<circle cx="40" cy="84" r="3"/>
	</symbol>
	<symbol id="three-eighth-note-offset-down" viewBox="0 0 34 192">
		filled oval
		stick down
		<circle cx="40" cy="84" r="3"/>
	</symbol>
	<symbol id="three-eighth-note-up-line" viewBox="0 0 34 192">
		filled oval
		stick up
		<circle cx="40" cy="84" r="3"/>
		<line x1="-6" y1="96" x2="40" y2="96" style="fill:none;stroke-miterlimit:10;stroke-width:2px;" />
	</symbol>
	<symbol id="three-eighth-note-offset-down-line" viewBox="0 0 34 192">
		filled oval
		stick down
		<circle cx="40" cy="84" r="3"/>
		<line x1="-6" y1="96" x2="40" y2="96" style="fill:none;stroke-miterlimit:10;stroke-width:2px;" />
	</symbol>
	<symbol id="three-eighth-note-down-line-under" viewBox="0 0 58 192">
		<path d="M14.84,104.28c-2.73-4.8,1.39-12.39,9.21-17s16.37-4.4,19.1.4-1.39,12.39-9.21,17S17.58,109.08,14.84,104.28Z"/>
		<rect x="-18.5" y="133.5" width="67" height="2" transform="translate(-119.5 149.5) rotate(-90)"/>
		<circle cx="53" cy="96" r="3"/>
		<line stroke-miterlimit="10" stroke-width="2px" y2="108" x2="53" y1="108" x1="5"/>
	</symbol>
	
	<symbol id="five-eighth-note-down" viewBox="0 0 58 192">
		empty oval
		stick down
		<circle cx="43" cy="96" r="3"/>
	</symbol>
	<symbol id="five-eighth-note-up" viewBox="0 0 58 192">
		empty oval
		stick up
		<circle cx="43" cy="96" r="3"/>
	</symbol>
	<symbol id="five-eighth-note-offset-up" viewBox="0 0 58 192">
		empty oval
		stick up
		<circle cx="43" cy="84" r="3"/>
	</symbol>
	<symbol id="five-eighth-note-offset-down" viewBox="0 0 58 192">
		empty oval
		stick down
		<circle cx="43" cy="84" r="3"/>
	</symbol>
	<symbol id="five-eighth-note-up-line" viewBox="0 0 58 192">
		<path d="M31.16,87.72c-2.73-4.8-11.28-5-19.1-.4s-11.94,12.17-9.21,17,11.28,5,19.1.4S33.89,92.51,31.16,87.72ZM19.93,101.23A18.67,18.67,0,0,1,10.81,104c-2.21,0-3.88-.63-4.49-1.7-1.22-2.14,1.2-7.7,7.75-11.53A18.67,18.67,0,0,1,23.19,88c2.21,0,3.88.63,4.49,1.7C28.9,91.84,26.48,97.39,19.93,101.23Z" transform="translate(10 0)"/>
		<rect x="-2.5" y="56.5" width="67" height="2" transform="translate(98.5 26.5) rotate(90)"/>
		<circle cx="53" cy="84" r="3"/>
		<line stroke-miterlimit="10" stroke-width="2px" y2="95" x2="53" y1="95" x1="0"/>
	</symbol>
	<symbol id="five-eighth-note-offset-down-line" viewBox="0 0 58 192">
		<path d="M31.16,87.72c-2.73-4.8-11.28-5-19.1-.4s-11.94,12.17-9.21,17,11.28,5,19.1.4S33.89,92.51,31.16,87.72ZM19.93,101.23A18.67,18.67,0,0,1,10.81,104c-2.21,0-3.88-.63-4.49-1.7-1.22-2.14,1.2-7.7,7.75-11.53A18.67,18.67,0,0,1,23.19,88c2.21,0,3.88.63,4.49,1.7C28.9,91.84,26.48,97.39,19.93,101.23Z" transform="translate(10 0)"/>
		<rect x="-30.5" y="133.5" width="67" height="2" transform="translate(-121.5 137.5) rotate(-90)"/>
		<circle cx="53" cy="84" r="3"/>
		<line stroke-miterlimit="10" stroke-width="2px" y2="95" x2="53" y1="95" x1="0"/>
	</symbol>
	<symbol id="five-eighth-note-down-line-under" viewBox="0 0 58 192">
		<path d="M31.16,87.72c-2.73-4.8-11.28-5-19.1-.4s-11.94,12.17-9.21,17,11.28,5,19.1.4S33.89,92.51,31.16,87.72ZM19.93,101.23A18.67,18.67,0,0,1,10.81,104c-2.21,0-3.88-.63-4.49-1.7-1.22-2.14,1.2-7.7,7.75-11.53A18.67,18.67,0,0,1,23.19,88c2.21,0,3.88.63,4.49,1.7C28.9,91.84,26.48,97.39,19.93,101.23Z" transform="translate(10 0)"/>
		<rect x="-30.5" y="133.5" width="67" height="2" transform="translate(-121.5 137.5) rotate(-90)"/>
		<circle cx="53" cy="96" r="3"/>
		<line stroke-miterlimit="10" stroke-width="2px" y2="108" x2="53" y1="108" x1="0"/>
	</symbol>
	<symbol id="whole-rest" viewBox="0 0 20 10">
		<rect x="0" y="-1" width="20" height="5" />
	</symbol>
	<symbol id="half-rest" viewBox="0 0 20 10">
		<rect x="0" y="0" width="20" height="5" />
	</symbol>
	<symbol id="quarter-rest" viewBox="0 0 26 74">
	   <g transform="matrix(0.99974987,0,0,0.99997083,-112.50645,534.65124) ">
		<path stroke-width="0.01" d="m138.76116,-515.119935c-6.84377,8.15627 -10.26565,14.25001 -10.26562,18.28125c-0.00003,3.89063 3.25778,9.72656 9.77343,17.50781l-2.03906,2.88282c-3.28128,-1.92189 -6.09377,-2.88283 -8.4375,-2.88282c-3.04689,-0.00001 -4.57033,1.82811 -4.57031,5.48438c-0.00002,3.74998 1.66404,7.47654 4.99219,11.17969l-1.82813,2.74218c-9.23438,-6.84377 -13.85157,-12.93751 -13.85156,-18.28125c-0.00001,-2.71876 0.93749,-4.875 2.8125,-6.46875c1.73436,-1.5 3.98436,-2.25 6.75,-2.25c1.78123,0 3.74998,0.46875 5.90625,1.40625l-14.13281,-18.77343c6.70311,-5.90624 10.05467,-11.24998 10.05468,-16.03125c-0.00001,-3.79685 -2.27345,-8.57809 -6.82031,-14.34375l5.625,0l16.03125,19.54687"/>
	   </g>
	</symbol>
	<symbol
		 id="eighth-rest" viewBox="0 0 58 192" >
		<path
		   d="M 23.146896,0.29864985 C 19.558018,0.97513701 16.811181,3.4532876 15.56889,6.8770804 c -0.269137,1.1044977 -0.269137,1.3736964 -0.269137,2.8853953 0,2.0777663 0.131131,3.1822683 1.104255,4.8251043 1.373395,2.754257 4.258263,4.963164 7.550366,5.770809 3.450781,0.973295 9.220542,0.138144 15.825397,-2.050145 l 1.642594,-0.566009 -8.116333,22.434318 -7.978254,22.406689 c 0,0 0.269195,0.138002 0.703988,0.434873 0.807482,0.53844 2.180887,0.945731 3.154022,0.945731 1.642582,0 3.719983,-0.945731 3.989128,-1.780944 0,-0.269244 3.851109,-13.350166 8.516599,-28.881594 L 49.938965,4.8269405 49.669768,4.4266032 C 49.000366,3.5913481 47.626909,3.3221056 46.784896,3.9916855 c -0.26915,0.2692422 -0.697036,0.835255 -0.966172,1.2425579 -1.242337,2.0777549 -4.396359,5.7707906 -6.038953,7.1444296 -1.511473,1.242515 -2.346533,1.373712 -3.71998,0.835269 -1.242275,-0.676489 -1.649448,-1.3737 -2.484566,-5.0943036 C 32.767748,4.4266032 31.801514,2.7491708 29.724123,1.3755326 27.805481,0.13988187 25.327778,-0.26736282 23.146896,0.29864985 z"
		   style="fill-rule:evenodd;stroke-width:0;stroke-linecap:butt;stroke-linejoin:round;stroke-miterlimit:10" />
	</symbol>
	<symbol id="stave-header" data-name="Layer 1" xmlns="http://www.w3.org/2000/svg" 
	   xmlns:inkscape="http://www.inkscape.org/namespaces/inkscape" viewBox="0 0 192 192">
		<defs>
			<style>.cls-1{fill:none;stroke:#000;stroke-miterlimit:10;stroke-width:2px;}</style>
		</defs>
		<title>stave-header</title>
		<line class="cls-1" y1="48" x2="192" y2="48"/>
		<line class="cls-1" y1="72" x2="192" y2="72"/>
		<line class="cls-1" y1="96" x2="192" y2="96"/>
		<line class="cls-1" y1="120" x2="192" y2="120"/>
		<line class="cls-1" y1="144" x2="192" y2="144"/>
		<path d="M71.9,117.49c0-12.67-12.67-20.76-21-20.76a13.63,13.63,0,0,0-2.47.23L45.25,81.43C61,67.2,59.55,48.56,59.55,43.82c0-4.9-.64-18.63-9.58-23.32-12.14,4.9-13.1,23.74-13.1,27.15s.21,2.77,2.34,18c.16,1.14.4,2.59.71,4.29C26.77,83.09,16,93.79,16,110.25s12.78,32.58,30.24,32.58a30.19,30.19,0,0,0,8.41-1.12c1.85,9.54,3.09,17,3.09,19.86,0,10.54-7.67,15-13.42,15s-6.81-4-6.81-4c9.26,0,8.2-9.61,8.2-9.61h0a8.53,8.53,0,0,0-17.05,0h0c0,.06,0,.12,0,.19s0,0,0,0,0,.05,0,.08c.08,8,3.39,15.79,16,15.79,12.78,0,16.08-12.25,16.08-17a61.26,61.26,0,0,0-.75-9.15l-2.5-12.13C67.24,136.59,71.9,127,71.9,117.49ZM52,34.23c3.94,0,4.79,2.77,4.79,7.56,0,4.54-2.86,13.45-14.44,25.67-.16-.79-.32-1.54-.47-2.24C37.29,43.39,48,34.23,52,34.23ZM46.13,140.17c-20.44,0-24.06-19.59-24.06-25.34s4-17.18,20.54-31.16c.89,4.33,1.89,9.11,2.94,14.11a20.73,20.73,0,0,0-13.06,19.5c0,12.46,13.1,14.37,13.1,14.37-6.71-5.32-7-8.94-7-11.39,0-2.17,1.09-10.34,9.16-12.19,2.28,10.76,4.61,21.83,6.44,31.17A31.16,31.16,0,0,1,46.13,140.17ZM57,138.28c-1.72-8.36-4-19.38-6.3-30.57h.57c11.28,0,13.52,13.84,13.52,16.18C64.76,125.69,65.84,134.38,57,138.28Z"/>
	</symbol>
	<symbol id="bass-clef" viewBox="0 0 192 192" xmlns="http://www.w3.org/2000/svg">
		<defs>
			<style>.cls-1{fill:none;stroke:#000;stroke-miterlimit:10;stroke-width:2px;}</style>
		</defs>
		<line class="cls-1" y1="48" x2="192" y2="48"/>
		<line class="cls-1" y1="72" x2="192" y2="72"/>
		<line class="cls-1" y1="96" x2="192" y2="96"/>
		<line class="cls-1" y1="120" x2="192" y2="120"/>
		<line class="cls-1" y1="144" x2="192" y2="144"/>
	  <title>Layer 1</title>
	  <path fill="black" stroke="#131516" stroke-width="0.621063" d="m35.5364,739.914978c32.757301,-22.117981 57.221603,-38.862976 72.9786,-50.438965c15.756004,-11.369019 32.341995,-25.632996 49.343002,-42.583984c17.000992,-16.950012 31.306,-36.175049 42.916,-57.467041c9.123001,-15.710999 17.000992,-33.901978 23.427994,-54.572998c6.427002,-20.466003 9.744003,-40.309998 10.365997,-59.121979c0,-17.571014 -2.279999,-34.315002 -7.048996,-50.025024c-4.561005,-15.917999 -12.438995,-28.940979 -23.634995,-39.483002c-11.195007,-10.335999 -25.708008,-15.503998 -43.744995,-15.503998c-17.416,0 -33.794006,3.514008 -49.136009,10.335999c-15.135101,7.028015 -25.916,18.19101 -31.928398,33.901001c0,1.447021 -0.8293,3.308014 -2.073196,5.995026c0.414597,3.307983 2.073196,5.787994 5.183098,7.648987c3.109901,1.860016 5.805099,2.687012 8.292999,2.687012c1.243896,0 4.768402,-0.620026 10.158501,-1.860016c5.598,-1.240997 10.158997,-2.067993 13.890999,-2.067993c10.987999,0 20.732994,3.928009 29.648003,11.576996c8.707001,7.64801 13.060989,16.950012 13.060989,27.906006c0,7.855988 -2.280991,15.298004 -6.633987,22.118988c-4.354004,6.822021 -10.367004,12.403015 -18.03801,16.330994c-7.670998,4.134003 -16.170998,5.995026 -25.292992,5.995026c-16.586205,0 -30.684303,-4.962006 -42.294502,-15.091003c-11.402901,-10.335999 -17.208,-23.359009 -17.208,-39.688995c0,-20.878998 6.427097,-38.863007 19.073898,-54.160004c12.854202,-15.298004 29.025497,-26.667023 48.928604,-34.31601c19.695992,-7.855011 39.598991,-11.575989 59.917,-11.575989c22.18399,0 43.330994,5.582001 63.026993,16.950989c19.903015,11.162994 35.451996,26.666992 47.062012,45.890991c11.610992,19.432007 17.622986,40.104004 17.622986,62.429016c0,39.689972 -13.268982,76.485992 -39.806,110.593964c-26.537994,34.108032 -59.294998,63.669006 -98.479996,88.889038c-26.123001,17.156982 -68.416801,40.309021 -126.675098,69.45697l-2.9025,-10.75l0,0l0,0l0,0l0,0l0,0zm287.974586,-319.791992c0,-7.441986 2.695007,-13.642975 8.085022,-18.603973c5.182983,-5.167999 11.609985,-7.649017 19.281006,-7.649017c6.634979,0 12.85498,2.894012 18.451996,8.476013c5.597992,5.373993 8.292999,11.781982 8.292999,18.811005c0,7.441986 -2.902008,13.849976 -8.292999,19.017975c-5.805023,4.960999 -12.232025,7.442017 -19.488007,7.442017c-7.67099,0 -13.890991,-2.481018 -18.867004,-8.062012c-4.976013,-5.375 -7.463013,-11.78299 -7.463013,-19.432007zm0,108.320007c0,-7.442017 2.695007,-13.849976 7.671021,-18.811005c5.182983,-5.167999 11.609985,-7.648987 19.695007,-7.648987c6.634979,0 12.646973,2.687988 18.451996,8.269012c5.390991,5.580994 8.292999,11.575989 8.292999,18.190979c0,8.062012 -2.695007,14.471008 -7.878021,19.638c-5.389984,5.16803 -11.609985,7.856018 -18.866974,7.856018c-8.085022,0 -14.512024,-2.687988 -19.695007,-7.648987c-4.976013,-4.960999 -7.671021,-11.57605 -7.671021,-19.845032z"
	  transform="translate(0 -23) scale(0.2)"/>
	</symbol>
	<symbol id="brace"
	   xmlns="http://www.w3.org/2000/svg"
	   xmlns:inkscape="http://www.inkscape.org/namespaces/inkscape"
	   version="1.0"
	   viewBox="0 0 45 135">
	  <path
		 d="m 8.9257633,18.760152 c -1.199791,1.588481 -2.918635,5.304994 -3.606276,7.244894 -1.031203,4.069706 -1.374937,9.019732 -1.031203,13.797599 0.168416,1.586706 0.512323,5.122185 1.031203,7.951279 0.856057,6.724865 1.031375,9.553959 1.031375,12.383052 -0.175318,4.596834 -1.375109,8.304473 -3.269099,10.780373 -0.343906,0.353193 -0.512322,0.706386 -0.512322,0.88742 0,0.181033 0.168416,0.534226 0.512322,0.887419 1.89399,2.475901 3.093781,6.18354 3.269099,10.608213 0,3.001253 -0.175318,5.830347 -1.031375,12.374179 -0.51888,3.010127 -0.862787,6.54561 -1.031203,7.96015 -0.343734,4.95003 0,9.90006 1.031203,13.78873 0.856057,3.18228 3.95001,8.66654 4.8127967,8.66654 0.343734,0 0.687468,-0.3532 0.687468,-0.70816 0,-0.17926 -0.343734,-0.70639 -0.687468,-1.24062 -2.0625777,-3.00125 -2.9253647,-6.0096 -3.2690987,-10.60643 0,-2.8291 0.175146,-5.48426 1.031203,-12.20202 0.343734,-2.648063 0.687641,-5.83035 0.862786,-7.072737 0.687641,-8.485506 -0.687468,-15.737498 -4.125155,-21.040718 -0.519053,-0.70816 -0.862787,-1.414546 -0.862787,-1.414546 0,0 0.343734,-0.706386 0.862787,-1.414547 3.437687,-5.303219 4.812796,-12.555212 4.125155,-21.221751 -0.175145,-1.061354 -0.519052,-4.243641 -0.862786,-7.070959 -0.856057,-6.538508 -1.031203,-9.193667 -1.031203,-12.02276 0.343734,-4.596834 1.206521,-7.605186 3.2690987,-10.606439 0.687468,-1.061354 0.862787,-1.414547 0.519052,-1.76774 -0.519052,-0.354967 -0.8627857,-0.181033 -1.7255727,1.059579 z"
		 style="fill:#000000;fill-rule:evenodd;stroke:#000000;stroke-width:0pt;stroke-linecap:butt;stroke-linejoin:round;stroke-miterlimit:10"
		 id="path126"
		 inkscape:connector-curvature="0" />
	</symbol>
</svg>